<svg viewBox="0 0 257.67 423.85" xmlns="http://www.w3.org/2000/svg"><path d="m51.7 4.85h154.27v50.56h-154.27z" fill="#a1b8c9" opacity=".5"/><path d="m128.83 62.94v-.54h-70.62a27.81 27.81 0 0 0 -27.77 29.37l16.78 298.29a27.81 27.81 0 0 0 27.78 26.25h53.85v.54h53.85a27.81 27.81 0 0 0 27.76-26.25l16.76-298.29a27.81 27.81 0 0 0 -27.76-29.37z" fill="#fff"/><path d="m227.22 108.64-.34 5.84h-119.69c-22.7 0-41.11 17.53-41.11 39.16v262.28c-10.49-3.37-18.21-12.53-18.87-23.61l-16.77-284.18c-.9-15.19 11.79-28 27.76-28h70.62v.51h70.63c15.98.02 28.67 12.81 27.77 28z" fill="#e1d2d5" opacity=".5"/><g fill="#adc1d0" opacity=".5"><ellipse cx="200.33" cy="148.88" rx="20.54" ry="3.83" transform="matrix(.10209808 -.99477434 .99477434 .10209808 31.79 332.97)"/><ellipse cx="196.06" cy="188.86" rx="10.27" ry="3.83" transform="matrix(.10192446 -.99479214 .99479214 .10192446 -11.81 364.64)"/></g><path d="m182.68 423.85h-.07l-53.85-.54h-53.76a34.83 34.83 0 0 1 -34.75-32.85l-16.8-298.3a34.81 34.81 0 0 1 34.76-36.76h77.62v.54h63.63a34.81 34.81 0 0 1 34.75 36.76l-16.77 298.3a34.83 34.83 0 0 1 -34.76 32.85zm-124.47-354.45a20.81 20.81 0 0 0 -20.78 22l16.78 298.27a20.82 20.82 0 0 0 20.79 19.64h53.85l53.89.54a20.82 20.82 0 0 0 20.74-19.64l16.75-298.3a20.81 20.81 0 0 0 -20.78-22h-77.62v-.51z" fill="#426572"/><path d="m213 64.56h-168.3v-64.56h168.3zm-154.3-14h140.3v-36.56h-140.3z" fill="#426572"/><path d="m237.91 57.42c-3.46-10.14-14-17.07-26-17.07h-166.19c-12 0-22.51 6.93-26 17.07l-9.93 29.18h238.09z" fill="#ebf0f9"/><path d="m257.67 93.6h-257.67l13.13-38.44c4.45-13 17.55-21.81 32.59-21.81h166.23c15 0 28.14 8.76 32.59 21.81zm-238.1-14h218.52l-6.8-19.92c-2.48-7.26-10.43-12.33-19.34-12.33h-166.23c-8.91 0-16.86 5.07-19.34 12.33z" fill="#426572"/><path d="m117.04 89.83v74.83h45.55v91.91h-67.51v-91.91h21.96" fill="#f3aa9f"/><path d="m162.59 236.06v19.43h-67.51v-91.91h4.12c1.75 9.47 4.13 18.78 8.11 27.52 10.22 22.39 31.41 39.28 55.28 44.96z" fill="#e1978f"/><path d="m169.59 263.57h-81.51v-105.91h22v-67.83h14v67.83h45.55zm-67.51-14h53.51v-77.91h-53.51z" fill="#426572"/></svg>