<svg viewBox="0 0 400 300" xmlns="http://www.w3.org/2000/svg"><path d="m216 112.74h10.1a37 37 0 0 1 37 37v71.91a15.17 15.17 0 0 1 -15.1 15.16h-53.8a15.17 15.17 0 0 1 -15.2-15.16v-71.91a37 37 0 0 1 37-37z" fill="#68e1fd"/><path d="m248 237.81h-53.8a16.18 16.18 0 0 1 -16.2-16.16v-71.91a38 38 0 0 1 38-38h10.1a38 38 0 0 1 38 38v71.91a16.18 16.18 0 0 1 -16.1 16.16zm-32-124.07a36 36 0 0 0 -36 36v71.91a14.18 14.18 0 0 0 14.17 14.16h53.83a14.17 14.17 0 0 0 14.16-14.16v-71.91a36 36 0 0 0 -36-36z" fill="#093f68"/><path d="m179.03 157.03h84.09v44.62h-84.09z" fill="#fff"/><g fill="#093f68"><path d="m263.12 202.65h-84.12a1 1 0 0 1 -1-1v-44.65a1 1 0 0 1 1-1h84.09a1 1 0 0 1 1 1v44.62a1 1 0 0 1 -.97 1.03zm-83.09-2h82.09v-42.65h-82.12z"/><path d="m210.73 73.04h20.69v24.92h-20.69z"/><path d="m231.42 99h-20.69a1 1 0 0 1 -1-1v-25a1 1 0 0 1 1-1h20.69a1 1 0 0 1 1 1v25a1 1 0 0 1 -1 1zm-19.69-2h18.69v-23h-18.69z"/></g><path d="m239.47 77.54s-30.22-3.75-58.37 2.82l-2.1-6.36s33.32-10.79 49.09-10.79 11.38 14.33 11.38 14.33z" fill="#68e1fd"/><path d="m181.09 81.36a1 1 0 0 1 -1-.69l-2.06-6.38a1 1 0 0 1 .64-1.26c1.37-.45 33.65-10.84 49.4-10.84 5.11 0 8.79 1.46 10.91 4.33 3.4 4.61 1.48 11 1.4 11.32a1 1 0 0 1 -1.08.7c-.3 0-30.38-3.66-58 2.79a.85.85 0 0 1 -.21.03zm-.8-6.73 1.48 4.55c25.06-5.64 51.78-3.27 56.94-2.73.35-1.71.89-5.81-1.29-8.75-1.73-2.33-4.86-3.51-9.3-3.51-13.95 0-42.28 8.69-47.83 10.44z" fill="#093f68"/><path d="m205.03 97.96h32.1v16.75h-32.1z" fill="#68e1fd"/><path d="m237.13 115.71h-32.13a1 1 0 0 1 -1-1v-16.71a1 1 0 0 1 1-1h32.1a1 1 0 0 1 1 1v16.75a1 1 0 0 1 -.97.96zm-31.1-2h30.1v-14.71h-30.13z" fill="#093f68"/><path d="m185.82 113.62c0 10.32-19.52 10.32-19.52 0s9.76-26.3 9.76-26.3 9.76 15.98 9.76 26.3z" fill="#fff"/><path d="m176.06 122.36a12.65 12.65 0 0 1 -7.28-2.12 7.81 7.81 0 0 1 -3.48-6.62c0-10.48 9.5-26.16 9.91-26.82a1 1 0 0 1 1.71 0c.4.66 9.9 16.34 9.9 26.82 0 5.74-5.41 8.74-10.76 8.74zm0-33.06c-2.35 4.15-8.76 16.18-8.76 24.32 0 4.63 4.54 6.74 8.76 6.74s8.76-2.11 8.76-6.74c0-8.14-6.4-20.17-8.76-24.32z" fill="#093f68"/><path d="m117.23 220.11-14-33.65 22.87-10.79s17.31-16.33 32.67-14 50.64 7.51 55.21 12.41 0 8.82 0 8.82a7.37 7.37 0 0 0 5.11.49c3.27-.65 12.59-9.17 16.77-13.44 5.07-5.18 16-2.27 12.43 6.81s-21.29 26.36-35.99 32.57-60.77-2-60.77-2z" fill="#ffc9b0"/><path d="m117.23 221.11a1 1 0 0 1 -.93-.62l-14-33.65a1 1 0 0 1 .5-1.29l22.73-10.71a70.69 70.69 0 0 1 10.62-7.9c8.5-5.17 16.16-7.29 22.77-6.3h.31c25.07 3.74 51.27 8.16 55.49 12.68a7.43 7.43 0 0 1 2.29 5.48 6.91 6.91 0 0 1 -1.32 3.58 8 8 0 0 0 3.2 0c2.71-.54 11.33-8.12 16.26-13.15a9.8 9.8 0 0 1 11.81-1.52c3 1.93 3.82 5.44 2.26 9.39-3.72 9.39-21.64 26.89-36.48 33.16-14.38 6.07-56.89-1.17-61.07-1.9l-34 12.69a.91.91 0 0 1 -.44.06zm-12.76-34.11 13.31 31.88 33.4-12.45a1 1 0 0 1 .53 0c.45.08 45.93 8.08 60.2 2.06 11.91-5 31.21-21.47 35.4-32.05 1.22-3.08.69-5.56-1.49-7a7.71 7.71 0 0 0 -9.29 1.23c-2.64 2.7-13.3 12.92-17.29 13.72a8.39 8.39 0 0 1 -5.83-.62 1 1 0 0 1 -.13-1.61 5.34 5.34 0 0 0 1.68-3.39 5.49 5.49 0 0 0 -1.76-4c-4.3-4.61-40.64-10-54.31-12.06h-.32c-14.7-2.2-31.67 13.62-31.84 13.78a1 1 0 0 1 -.26.18z" fill="#093f68"/><path d="m202.13 188c-4.46 0-10.19-1.32-16.23-2.71-9.38-2.16-19.09-4.4-23.52-1.42a1 1 0 1 1 -1.12-1.65c5.15-3.47 15.29-1.14 25.09 1.12 6.47 1.49 12.57 2.89 16.9 2.63 7.22-.45 9.87-3.67 9.9-3.71a1 1 0 0 1 1.58 1.23c-.13.16-3.16 4-11.35 4.47-.38.04-.82.04-1.25.04z" fill="#093f68"/></svg>