<svg fill="none" height="43" viewBox="0 0 32 43" width="32" xmlns="http://www.w3.org/2000/svg"><path clip-rule="evenodd" d="m15.7364 42.9831c8.5163 0 15.42-6.9037 15.42-15.4199 0-5.3645-2.7556-9.2172-7.4844-15.8285-2.127-2.97367-4.6531-6.50542-7.5072-10.983841-.1975-.309984-.6592-.309983-.8568.000002-2.854 4.478419-5.38015 8.010169-7.50708 10.983839-4.72882 6.6113-7.484453 10.464-7.484453 15.8285 0 8.5162 6.903753 15.4199 15.419933 15.4199zm7.9479-23.4419c-.3867-.2984-.9242-.2017-1.2005.216-.1323.2001.0993.5433.4743 1.0991.736 1.0908 2.0244 3.0004 2.1981 6.253.1674 3.1361-.5651 4.8992-.9932 5.9297-.2422.5828-.387.9313-.2166 1.1614.297.4008.8386.4658 1.2097.1451 1.7603-1.5209 2.4109-4.464 2.1844-7.2362-.2299-2.8139-1.384-5.8154-3.6562-7.5681z" fill="#000" fill-rule="evenodd"/></svg>